G04 #@! TF.GenerationSoftware,KiCad,Pcbnew,(5.0.1)-3*
G04 #@! TF.CreationDate,2019-12-27T22:22:09+02:00*
G04 #@! TF.ProjectId,8Sticc_2u,3853746963635F32752E6B696361645F,rev?*
G04 #@! TF.SameCoordinates,Original*
G04 #@! TF.FileFunction,Soldermask,Top*
G04 #@! TF.FilePolarity,Negative*
%FSLAX46Y46*%
G04 Gerber Fmt 4.6, Leading zero omitted, Abs format (unit mm)*
G04 Created by KiCad (PCBNEW (5.0.1)-3) date 12/27/19 22:22:09*
%MOMM*%
%LPD*%
G01*
G04 APERTURE LIST*
%ADD10C,0.100000*%
G04 APERTURE END LIST*
D10*
G36*
X142161484Y-144020982D02*
X142370952Y-144107746D01*
X142559473Y-144233712D01*
X142719788Y-144394027D01*
X142845754Y-144582548D01*
X142932518Y-144792016D01*
X142976750Y-145014385D01*
X142976750Y-145241115D01*
X142932518Y-145463484D01*
X142845754Y-145672952D01*
X142719788Y-145861473D01*
X142559473Y-146021788D01*
X142370952Y-146147754D01*
X142161484Y-146234518D01*
X141939115Y-146278750D01*
X141712385Y-146278750D01*
X141490016Y-146234518D01*
X141280548Y-146147754D01*
X141092027Y-146021788D01*
X140931712Y-145861473D01*
X140805746Y-145672952D01*
X140718982Y-145463484D01*
X140674750Y-145241115D01*
X140674750Y-145014385D01*
X140718982Y-144792016D01*
X140805746Y-144582548D01*
X140931712Y-144394027D01*
X141092027Y-144233712D01*
X141280548Y-144107746D01*
X141490016Y-144020982D01*
X141712385Y-143976750D01*
X141939115Y-143976750D01*
X142161484Y-144020982D01*
X142161484Y-144020982D01*
G37*
G36*
X99743484Y-144020982D02*
X99952952Y-144107746D01*
X100141473Y-144233712D01*
X100301788Y-144394027D01*
X100427754Y-144582548D01*
X100514518Y-144792016D01*
X100558750Y-145014385D01*
X100558750Y-145241115D01*
X100514518Y-145463484D01*
X100427754Y-145672952D01*
X100301788Y-145861473D01*
X100141473Y-146021788D01*
X99952952Y-146147754D01*
X99743484Y-146234518D01*
X99521115Y-146278750D01*
X99294385Y-146278750D01*
X99072016Y-146234518D01*
X98862548Y-146147754D01*
X98674027Y-146021788D01*
X98513712Y-145861473D01*
X98387746Y-145672952D01*
X98300982Y-145463484D01*
X98256750Y-145241115D01*
X98256750Y-145014385D01*
X98300982Y-144792016D01*
X98387746Y-144582548D01*
X98513712Y-144394027D01*
X98674027Y-144233712D01*
X98862548Y-144107746D01*
X99072016Y-144020982D01*
X99294385Y-143976750D01*
X99521115Y-143976750D01*
X99743484Y-144020982D01*
X99743484Y-144020982D01*
G37*
G36*
X132988002Y-139711568D02*
X132988004Y-139711569D01*
X132988005Y-139711569D01*
X133361263Y-139866177D01*
X133361264Y-139866178D01*
X133697189Y-140090636D01*
X133982864Y-140376311D01*
X133982866Y-140376314D01*
X134207323Y-140712237D01*
X134361931Y-141085495D01*
X134440750Y-141481744D01*
X134440750Y-141885756D01*
X134361931Y-142282005D01*
X134207323Y-142655263D01*
X134207322Y-142655264D01*
X133982864Y-142991189D01*
X133697189Y-143276864D01*
X133697186Y-143276866D01*
X133361263Y-143501323D01*
X132988005Y-143655931D01*
X132988004Y-143655931D01*
X132988002Y-143655932D01*
X132591757Y-143734750D01*
X132187743Y-143734750D01*
X131791498Y-143655932D01*
X131791496Y-143655931D01*
X131791495Y-143655931D01*
X131418237Y-143501323D01*
X131082314Y-143276866D01*
X131082311Y-143276864D01*
X130796636Y-142991189D01*
X130572178Y-142655264D01*
X130572177Y-142655263D01*
X130417569Y-142282005D01*
X130338750Y-141885756D01*
X130338750Y-141481744D01*
X130417569Y-141085495D01*
X130572177Y-140712237D01*
X130796634Y-140376314D01*
X130796636Y-140376311D01*
X131082311Y-140090636D01*
X131418236Y-139866178D01*
X131418237Y-139866177D01*
X131791495Y-139711569D01*
X131791496Y-139711569D01*
X131791498Y-139711568D01*
X132187743Y-139632750D01*
X132591757Y-139632750D01*
X132988002Y-139711568D01*
X132988002Y-139711568D01*
G37*
G36*
X109188002Y-139711568D02*
X109188004Y-139711569D01*
X109188005Y-139711569D01*
X109561263Y-139866177D01*
X109561264Y-139866178D01*
X109897189Y-140090636D01*
X110182864Y-140376311D01*
X110182866Y-140376314D01*
X110407323Y-140712237D01*
X110561931Y-141085495D01*
X110640750Y-141481744D01*
X110640750Y-141885756D01*
X110561931Y-142282005D01*
X110407323Y-142655263D01*
X110407322Y-142655264D01*
X110182864Y-142991189D01*
X109897189Y-143276864D01*
X109897186Y-143276866D01*
X109561263Y-143501323D01*
X109188005Y-143655931D01*
X109188004Y-143655931D01*
X109188002Y-143655932D01*
X108791757Y-143734750D01*
X108387743Y-143734750D01*
X107991498Y-143655932D01*
X107991496Y-143655931D01*
X107991495Y-143655931D01*
X107618237Y-143501323D01*
X107282314Y-143276866D01*
X107282311Y-143276864D01*
X106996636Y-142991189D01*
X106772178Y-142655264D01*
X106772177Y-142655263D01*
X106617569Y-142282005D01*
X106538750Y-141885756D01*
X106538750Y-141481744D01*
X106617569Y-141085495D01*
X106772177Y-140712237D01*
X106996634Y-140376314D01*
X106996636Y-140376311D01*
X107282311Y-140090636D01*
X107618236Y-139866178D01*
X107618237Y-139866177D01*
X107991495Y-139711569D01*
X107991496Y-139711569D01*
X107991498Y-139711568D01*
X108387743Y-139632750D01*
X108791757Y-139632750D01*
X109188002Y-139711568D01*
X109188002Y-139711568D01*
G37*
G36*
X121088002Y-131471568D02*
X121088004Y-131471569D01*
X121088005Y-131471569D01*
X121461263Y-131626177D01*
X121792655Y-131847607D01*
X121797189Y-131850636D01*
X122082864Y-132136311D01*
X122082866Y-132136314D01*
X122307323Y-132472237D01*
X122336530Y-132542750D01*
X122461932Y-132845498D01*
X122540750Y-133241743D01*
X122540750Y-133645757D01*
X122466686Y-134018104D01*
X122461931Y-134042005D01*
X122307323Y-134415263D01*
X122307322Y-134415264D01*
X122082864Y-134751189D01*
X121797189Y-135036864D01*
X121797186Y-135036866D01*
X121461263Y-135261323D01*
X121088005Y-135415931D01*
X121088004Y-135415931D01*
X121088002Y-135415932D01*
X120691757Y-135494750D01*
X120287743Y-135494750D01*
X119891498Y-135415932D01*
X119891496Y-135415931D01*
X119891495Y-135415931D01*
X119518237Y-135261323D01*
X119182314Y-135036866D01*
X119182311Y-135036864D01*
X118896636Y-134751189D01*
X118672178Y-134415264D01*
X118672177Y-134415263D01*
X118517569Y-134042005D01*
X118512815Y-134018104D01*
X118438750Y-133645757D01*
X118438750Y-133241743D01*
X118517568Y-132845498D01*
X118642970Y-132542750D01*
X118672177Y-132472237D01*
X118896634Y-132136314D01*
X118896636Y-132136311D01*
X119182311Y-131850636D01*
X119186845Y-131847607D01*
X119518237Y-131626177D01*
X119891495Y-131471569D01*
X119891496Y-131471569D01*
X119891498Y-131471568D01*
X120287743Y-131392750D01*
X120691757Y-131392750D01*
X121088002Y-131471568D01*
X121088002Y-131471568D01*
G37*
G36*
X130740002Y-131471568D02*
X130740004Y-131471569D01*
X130740005Y-131471569D01*
X131113263Y-131626177D01*
X131444655Y-131847607D01*
X131449189Y-131850636D01*
X131734864Y-132136311D01*
X131734866Y-132136314D01*
X131959323Y-132472237D01*
X131988530Y-132542750D01*
X132113932Y-132845498D01*
X132192750Y-133241743D01*
X132192750Y-133645757D01*
X132118686Y-134018104D01*
X132113931Y-134042005D01*
X131959323Y-134415263D01*
X131959322Y-134415264D01*
X131734864Y-134751189D01*
X131449189Y-135036864D01*
X131449186Y-135036866D01*
X131113263Y-135261323D01*
X130740005Y-135415931D01*
X130740004Y-135415931D01*
X130740002Y-135415932D01*
X130343757Y-135494750D01*
X129939743Y-135494750D01*
X129543498Y-135415932D01*
X129543496Y-135415931D01*
X129543495Y-135415931D01*
X129170237Y-135261323D01*
X128834314Y-135036866D01*
X128834311Y-135036864D01*
X128548636Y-134751189D01*
X128324178Y-134415264D01*
X128324177Y-134415263D01*
X128169569Y-134042005D01*
X128164815Y-134018104D01*
X128090750Y-133645757D01*
X128090750Y-133241743D01*
X128169568Y-132845498D01*
X128294970Y-132542750D01*
X128324177Y-132472237D01*
X128548634Y-132136314D01*
X128548636Y-132136311D01*
X128834311Y-131850636D01*
X128838845Y-131847607D01*
X129170237Y-131626177D01*
X129543495Y-131471569D01*
X129543496Y-131471569D01*
X129543498Y-131471568D01*
X129939743Y-131392750D01*
X130343757Y-131392750D01*
X130740002Y-131471568D01*
X130740002Y-131471568D01*
G37*
G36*
X111436002Y-131471568D02*
X111436004Y-131471569D01*
X111436005Y-131471569D01*
X111809263Y-131626177D01*
X112140655Y-131847607D01*
X112145189Y-131850636D01*
X112430864Y-132136311D01*
X112430866Y-132136314D01*
X112655323Y-132472237D01*
X112684530Y-132542750D01*
X112809932Y-132845498D01*
X112888750Y-133241743D01*
X112888750Y-133645757D01*
X112814686Y-134018104D01*
X112809931Y-134042005D01*
X112655323Y-134415263D01*
X112655322Y-134415264D01*
X112430864Y-134751189D01*
X112145189Y-135036864D01*
X112145186Y-135036866D01*
X111809263Y-135261323D01*
X111436005Y-135415931D01*
X111436004Y-135415931D01*
X111436002Y-135415932D01*
X111039757Y-135494750D01*
X110635743Y-135494750D01*
X110239498Y-135415932D01*
X110239496Y-135415931D01*
X110239495Y-135415931D01*
X109866237Y-135261323D01*
X109530314Y-135036866D01*
X109530311Y-135036864D01*
X109244636Y-134751189D01*
X109020178Y-134415264D01*
X109020177Y-134415263D01*
X108865569Y-134042005D01*
X108860815Y-134018104D01*
X108786750Y-133645757D01*
X108786750Y-133241743D01*
X108865568Y-132845498D01*
X108990970Y-132542750D01*
X109020177Y-132472237D01*
X109244634Y-132136314D01*
X109244636Y-132136311D01*
X109530311Y-131850636D01*
X109534845Y-131847607D01*
X109866237Y-131626177D01*
X110239495Y-131471569D01*
X110239496Y-131471569D01*
X110239498Y-131471568D01*
X110635743Y-131392750D01*
X111039757Y-131392750D01*
X111436002Y-131471568D01*
X111436002Y-131471568D01*
G37*
G36*
X135484562Y-132577374D02*
X135648534Y-132645294D01*
X135796104Y-132743897D01*
X135921603Y-132869396D01*
X136020206Y-133016966D01*
X136088126Y-133180938D01*
X136122750Y-133355009D01*
X136122750Y-133532491D01*
X136088126Y-133706562D01*
X136020206Y-133870534D01*
X135921603Y-134018104D01*
X135796104Y-134143603D01*
X135648534Y-134242206D01*
X135484562Y-134310126D01*
X135310491Y-134344750D01*
X135133009Y-134344750D01*
X134958938Y-134310126D01*
X134794966Y-134242206D01*
X134647396Y-134143603D01*
X134521897Y-134018104D01*
X134423294Y-133870534D01*
X134355374Y-133706562D01*
X134320750Y-133532491D01*
X134320750Y-133355009D01*
X134355374Y-133180938D01*
X134423294Y-133016966D01*
X134521897Y-132869396D01*
X134647396Y-132743897D01*
X134794966Y-132645294D01*
X134958938Y-132577374D01*
X135133009Y-132542750D01*
X135310491Y-132542750D01*
X135484562Y-132577374D01*
X135484562Y-132577374D01*
G37*
G36*
X115639378Y-132570773D02*
X115663749Y-132573174D01*
X115688122Y-132570773D01*
X115829009Y-132542750D01*
X116006491Y-132542750D01*
X116180562Y-132577374D01*
X116344534Y-132645294D01*
X116492104Y-132743897D01*
X116617603Y-132869396D01*
X116716206Y-133016966D01*
X116784126Y-133180938D01*
X116818750Y-133355009D01*
X116818750Y-133532491D01*
X116784126Y-133706562D01*
X116716206Y-133870534D01*
X116617603Y-134018104D01*
X116492104Y-134143603D01*
X116344534Y-134242206D01*
X116180562Y-134310126D01*
X116006491Y-134344750D01*
X115829009Y-134344750D01*
X115688122Y-134316727D01*
X115663751Y-134314326D01*
X115639378Y-134316727D01*
X115498491Y-134344750D01*
X115321009Y-134344750D01*
X115146938Y-134310126D01*
X114982966Y-134242206D01*
X114835396Y-134143603D01*
X114709897Y-134018104D01*
X114611294Y-133870534D01*
X114543374Y-133706562D01*
X114508750Y-133532491D01*
X114508750Y-133355009D01*
X114543374Y-133180938D01*
X114611294Y-133016966D01*
X114709897Y-132869396D01*
X114835396Y-132743897D01*
X114982966Y-132645294D01*
X115146938Y-132577374D01*
X115321009Y-132542750D01*
X115498491Y-132542750D01*
X115639378Y-132570773D01*
X115639378Y-132570773D01*
G37*
G36*
X106020562Y-132577374D02*
X106184534Y-132645294D01*
X106332104Y-132743897D01*
X106457603Y-132869396D01*
X106556206Y-133016966D01*
X106624126Y-133180938D01*
X106658750Y-133355009D01*
X106658750Y-133532491D01*
X106624126Y-133706562D01*
X106556206Y-133870534D01*
X106457603Y-134018104D01*
X106332104Y-134143603D01*
X106184534Y-134242206D01*
X106020562Y-134310126D01*
X105846491Y-134344750D01*
X105669009Y-134344750D01*
X105494938Y-134310126D01*
X105330966Y-134242206D01*
X105183396Y-134143603D01*
X105057897Y-134018104D01*
X104959294Y-133870534D01*
X104891374Y-133706562D01*
X104856750Y-133532491D01*
X104856750Y-133355009D01*
X104891374Y-133180938D01*
X104959294Y-133016966D01*
X105057897Y-132869396D01*
X105183396Y-132743897D01*
X105330966Y-132645294D01*
X105494938Y-132577374D01*
X105669009Y-132542750D01*
X105846491Y-132542750D01*
X106020562Y-132577374D01*
X106020562Y-132577374D01*
G37*
G36*
X125291378Y-132570773D02*
X125315749Y-132573174D01*
X125340122Y-132570773D01*
X125481009Y-132542750D01*
X125658491Y-132542750D01*
X125832562Y-132577374D01*
X125996534Y-132645294D01*
X126144104Y-132743897D01*
X126269603Y-132869396D01*
X126368206Y-133016966D01*
X126436126Y-133180938D01*
X126470750Y-133355009D01*
X126470750Y-133532491D01*
X126436126Y-133706562D01*
X126368206Y-133870534D01*
X126269603Y-134018104D01*
X126144104Y-134143603D01*
X125996534Y-134242206D01*
X125832562Y-134310126D01*
X125658491Y-134344750D01*
X125481009Y-134344750D01*
X125340122Y-134316727D01*
X125315751Y-134314326D01*
X125291378Y-134316727D01*
X125150491Y-134344750D01*
X124973009Y-134344750D01*
X124798938Y-134310126D01*
X124634966Y-134242206D01*
X124487396Y-134143603D01*
X124361897Y-134018104D01*
X124263294Y-133870534D01*
X124195374Y-133706562D01*
X124160750Y-133532491D01*
X124160750Y-133355009D01*
X124195374Y-133180938D01*
X124263294Y-133016966D01*
X124361897Y-132869396D01*
X124487396Y-132743897D01*
X124634966Y-132645294D01*
X124798938Y-132577374D01*
X124973009Y-132542750D01*
X125150491Y-132542750D01*
X125291378Y-132570773D01*
X125291378Y-132570773D01*
G37*
G36*
X117015484Y-129796982D02*
X117224952Y-129883746D01*
X117413473Y-130009712D01*
X117573788Y-130170027D01*
X117699754Y-130358548D01*
X117786518Y-130568016D01*
X117830750Y-130790385D01*
X117830750Y-131017115D01*
X117786518Y-131239484D01*
X117699754Y-131448952D01*
X117573788Y-131637473D01*
X117413473Y-131797788D01*
X117224952Y-131923754D01*
X117015484Y-132010518D01*
X116793115Y-132054750D01*
X116566385Y-132054750D01*
X116344016Y-132010518D01*
X116134548Y-131923754D01*
X115946027Y-131797788D01*
X115785712Y-131637473D01*
X115659746Y-131448952D01*
X115572982Y-131239484D01*
X115528750Y-131017115D01*
X115528750Y-130790385D01*
X115572982Y-130568016D01*
X115659746Y-130358548D01*
X115785712Y-130170027D01*
X115946027Y-130009712D01*
X116134548Y-129883746D01*
X116344016Y-129796982D01*
X116566385Y-129752750D01*
X116793115Y-129752750D01*
X117015484Y-129796982D01*
X117015484Y-129796982D01*
G37*
G36*
X107363484Y-129796982D02*
X107572952Y-129883746D01*
X107761473Y-130009712D01*
X107921788Y-130170027D01*
X108047754Y-130358548D01*
X108134518Y-130568016D01*
X108178750Y-130790385D01*
X108178750Y-131017115D01*
X108134518Y-131239484D01*
X108047754Y-131448952D01*
X107921788Y-131637473D01*
X107761473Y-131797788D01*
X107572952Y-131923754D01*
X107363484Y-132010518D01*
X107141115Y-132054750D01*
X106914385Y-132054750D01*
X106692016Y-132010518D01*
X106482548Y-131923754D01*
X106294027Y-131797788D01*
X106133712Y-131637473D01*
X106007746Y-131448952D01*
X105920982Y-131239484D01*
X105876750Y-131017115D01*
X105876750Y-130790385D01*
X105920982Y-130568016D01*
X106007746Y-130358548D01*
X106133712Y-130170027D01*
X106294027Y-130009712D01*
X106482548Y-129883746D01*
X106692016Y-129796982D01*
X106914385Y-129752750D01*
X107141115Y-129752750D01*
X107363484Y-129796982D01*
X107363484Y-129796982D01*
G37*
G36*
X126667484Y-129796982D02*
X126876952Y-129883746D01*
X127065473Y-130009712D01*
X127225788Y-130170027D01*
X127351754Y-130358548D01*
X127438518Y-130568016D01*
X127482750Y-130790385D01*
X127482750Y-131017115D01*
X127438518Y-131239484D01*
X127351754Y-131448952D01*
X127225788Y-131637473D01*
X127065473Y-131797788D01*
X126876952Y-131923754D01*
X126667484Y-132010518D01*
X126445115Y-132054750D01*
X126218385Y-132054750D01*
X125996016Y-132010518D01*
X125786548Y-131923754D01*
X125598027Y-131797788D01*
X125437712Y-131637473D01*
X125311746Y-131448952D01*
X125224982Y-131239484D01*
X125180750Y-131017115D01*
X125180750Y-130790385D01*
X125224982Y-130568016D01*
X125311746Y-130358548D01*
X125437712Y-130170027D01*
X125598027Y-130009712D01*
X125786548Y-129883746D01*
X125996016Y-129796982D01*
X126218385Y-129752750D01*
X126445115Y-129752750D01*
X126667484Y-129796982D01*
X126667484Y-129796982D01*
G37*
G36*
X113713484Y-127256982D02*
X113922952Y-127343746D01*
X114111473Y-127469712D01*
X114271788Y-127630027D01*
X114397754Y-127818548D01*
X114484518Y-128028016D01*
X114528750Y-128250385D01*
X114528750Y-128477115D01*
X114484518Y-128699484D01*
X114397754Y-128908952D01*
X114271788Y-129097473D01*
X114111473Y-129257788D01*
X113922952Y-129383754D01*
X113713484Y-129470518D01*
X113491115Y-129514750D01*
X113264385Y-129514750D01*
X113042016Y-129470518D01*
X112832548Y-129383754D01*
X112644027Y-129257788D01*
X112483712Y-129097473D01*
X112357746Y-128908952D01*
X112270982Y-128699484D01*
X112226750Y-128477115D01*
X112226750Y-128250385D01*
X112270982Y-128028016D01*
X112357746Y-127818548D01*
X112483712Y-127630027D01*
X112644027Y-127469712D01*
X112832548Y-127343746D01*
X113042016Y-127256982D01*
X113264385Y-127212750D01*
X113491115Y-127212750D01*
X113713484Y-127256982D01*
X113713484Y-127256982D01*
G37*
G36*
X132595489Y-124877798D02*
X132849452Y-124928314D01*
X133136266Y-125047117D01*
X133394392Y-125219591D01*
X133613909Y-125439108D01*
X133786383Y-125697234D01*
X133905186Y-125984048D01*
X133965750Y-126288528D01*
X133965750Y-126598972D01*
X133905186Y-126903452D01*
X133786383Y-127190266D01*
X133613909Y-127448392D01*
X133590843Y-127471458D01*
X133575297Y-127490400D01*
X133563746Y-127512011D01*
X133556633Y-127535460D01*
X133554231Y-127559846D01*
X133556633Y-127584232D01*
X133563746Y-127607681D01*
X133575297Y-127629292D01*
X133701754Y-127818548D01*
X133788518Y-128028016D01*
X133832750Y-128250385D01*
X133832750Y-128477115D01*
X133788518Y-128699484D01*
X133701754Y-128908952D01*
X133575788Y-129097473D01*
X133415473Y-129257788D01*
X133226952Y-129383754D01*
X133017484Y-129470518D01*
X132795115Y-129514750D01*
X132568385Y-129514750D01*
X132346016Y-129470518D01*
X132136548Y-129383754D01*
X131948027Y-129257788D01*
X131787712Y-129097473D01*
X131661746Y-128908952D01*
X131574982Y-128699484D01*
X131530750Y-128477115D01*
X131530750Y-128250385D01*
X131574982Y-128028016D01*
X131611392Y-127940113D01*
X131618505Y-127916663D01*
X131620907Y-127892277D01*
X131618505Y-127867891D01*
X131611392Y-127844442D01*
X131599840Y-127822831D01*
X131584295Y-127803889D01*
X131565357Y-127788348D01*
X131385108Y-127667909D01*
X131165591Y-127448392D01*
X130993117Y-127190266D01*
X130874314Y-126903452D01*
X130813750Y-126598972D01*
X130813750Y-126288528D01*
X130874314Y-125984048D01*
X130993117Y-125697234D01*
X131165591Y-125439108D01*
X131385108Y-125219591D01*
X131643234Y-125047117D01*
X131930048Y-124928314D01*
X132184011Y-124877798D01*
X132234527Y-124867750D01*
X132544973Y-124867750D01*
X132595489Y-124877798D01*
X132595489Y-124877798D01*
G37*
G36*
X123365484Y-127256982D02*
X123574952Y-127343746D01*
X123763473Y-127469712D01*
X123923788Y-127630027D01*
X124049754Y-127818548D01*
X124136518Y-128028016D01*
X124180750Y-128250385D01*
X124180750Y-128477115D01*
X124136518Y-128699484D01*
X124049754Y-128908952D01*
X123923788Y-129097473D01*
X123763473Y-129257788D01*
X123574952Y-129383754D01*
X123365484Y-129470518D01*
X123143115Y-129514750D01*
X122916385Y-129514750D01*
X122694016Y-129470518D01*
X122484548Y-129383754D01*
X122296027Y-129257788D01*
X122135712Y-129097473D01*
X122009746Y-128908952D01*
X121922982Y-128699484D01*
X121878750Y-128477115D01*
X121878750Y-128250385D01*
X121922982Y-128028016D01*
X122009746Y-127818548D01*
X122135712Y-127630027D01*
X122296027Y-127469712D01*
X122484548Y-127343746D01*
X122694016Y-127256982D01*
X122916385Y-127212750D01*
X123143115Y-127212750D01*
X123365484Y-127256982D01*
X123365484Y-127256982D01*
G37*
G36*
X108795489Y-124877798D02*
X109049452Y-124928314D01*
X109336266Y-125047117D01*
X109594392Y-125219591D01*
X109813909Y-125439108D01*
X109986383Y-125697234D01*
X110105186Y-125984048D01*
X110165750Y-126288528D01*
X110165750Y-126598972D01*
X110105186Y-126903452D01*
X109986383Y-127190266D01*
X109813909Y-127448392D01*
X109594392Y-127667909D01*
X109336266Y-127840383D01*
X109049452Y-127959186D01*
X108795489Y-128009702D01*
X108744973Y-128019750D01*
X108434527Y-128019750D01*
X108384011Y-128009702D01*
X108130048Y-127959186D01*
X107843234Y-127840383D01*
X107585108Y-127667909D01*
X107365591Y-127448392D01*
X107193117Y-127190266D01*
X107074314Y-126903452D01*
X107013750Y-126598972D01*
X107013750Y-126288528D01*
X107074314Y-125984048D01*
X107193117Y-125697234D01*
X107365591Y-125439108D01*
X107585108Y-125219591D01*
X107843234Y-125047117D01*
X108130048Y-124928314D01*
X108384011Y-124877798D01*
X108434527Y-124867750D01*
X108744973Y-124867750D01*
X108795489Y-124877798D01*
X108795489Y-124877798D01*
G37*
G36*
X130740002Y-112167568D02*
X130740004Y-112167569D01*
X130740005Y-112167569D01*
X131113263Y-112322177D01*
X131444655Y-112543607D01*
X131449189Y-112546636D01*
X131734864Y-112832311D01*
X131734866Y-112832314D01*
X131959323Y-113168237D01*
X131988530Y-113238750D01*
X132113932Y-113541498D01*
X132192750Y-113937743D01*
X132192750Y-114341757D01*
X132118686Y-114714104D01*
X132113931Y-114738005D01*
X131959323Y-115111263D01*
X131959322Y-115111264D01*
X131734864Y-115447189D01*
X131449189Y-115732864D01*
X131449186Y-115732866D01*
X131113263Y-115957323D01*
X130740005Y-116111931D01*
X130740004Y-116111931D01*
X130740002Y-116111932D01*
X130343757Y-116190750D01*
X129939743Y-116190750D01*
X129543498Y-116111932D01*
X129543496Y-116111931D01*
X129543495Y-116111931D01*
X129170237Y-115957323D01*
X128834314Y-115732866D01*
X128834311Y-115732864D01*
X128548636Y-115447189D01*
X128324178Y-115111264D01*
X128324177Y-115111263D01*
X128169569Y-114738005D01*
X128164815Y-114714104D01*
X128090750Y-114341757D01*
X128090750Y-113937743D01*
X128169568Y-113541498D01*
X128294970Y-113238750D01*
X128324177Y-113168237D01*
X128548634Y-112832314D01*
X128548636Y-112832311D01*
X128834311Y-112546636D01*
X128838845Y-112543607D01*
X129170237Y-112322177D01*
X129543495Y-112167569D01*
X129543496Y-112167569D01*
X129543498Y-112167568D01*
X129939743Y-112088750D01*
X130343757Y-112088750D01*
X130740002Y-112167568D01*
X130740002Y-112167568D01*
G37*
G36*
X111436002Y-112167568D02*
X111436004Y-112167569D01*
X111436005Y-112167569D01*
X111809263Y-112322177D01*
X112140655Y-112543607D01*
X112145189Y-112546636D01*
X112430864Y-112832311D01*
X112430866Y-112832314D01*
X112655323Y-113168237D01*
X112684530Y-113238750D01*
X112809932Y-113541498D01*
X112888750Y-113937743D01*
X112888750Y-114341757D01*
X112814686Y-114714104D01*
X112809931Y-114738005D01*
X112655323Y-115111263D01*
X112655322Y-115111264D01*
X112430864Y-115447189D01*
X112145189Y-115732864D01*
X112145186Y-115732866D01*
X111809263Y-115957323D01*
X111436005Y-116111931D01*
X111436004Y-116111931D01*
X111436002Y-116111932D01*
X111039757Y-116190750D01*
X110635743Y-116190750D01*
X110239498Y-116111932D01*
X110239496Y-116111931D01*
X110239495Y-116111931D01*
X109866237Y-115957323D01*
X109530314Y-115732866D01*
X109530311Y-115732864D01*
X109244636Y-115447189D01*
X109020178Y-115111264D01*
X109020177Y-115111263D01*
X108865569Y-114738005D01*
X108860815Y-114714104D01*
X108786750Y-114341757D01*
X108786750Y-113937743D01*
X108865568Y-113541498D01*
X108990970Y-113238750D01*
X109020177Y-113168237D01*
X109244634Y-112832314D01*
X109244636Y-112832311D01*
X109530311Y-112546636D01*
X109534845Y-112543607D01*
X109866237Y-112322177D01*
X110239495Y-112167569D01*
X110239496Y-112167569D01*
X110239498Y-112167568D01*
X110635743Y-112088750D01*
X111039757Y-112088750D01*
X111436002Y-112167568D01*
X111436002Y-112167568D01*
G37*
G36*
X106020562Y-113273374D02*
X106184534Y-113341294D01*
X106332104Y-113439897D01*
X106457603Y-113565396D01*
X106556206Y-113712966D01*
X106624126Y-113876938D01*
X106658750Y-114051009D01*
X106658750Y-114228491D01*
X106624126Y-114402562D01*
X106556206Y-114566534D01*
X106457603Y-114714104D01*
X106332104Y-114839603D01*
X106184534Y-114938206D01*
X106020562Y-115006126D01*
X105846491Y-115040750D01*
X105669009Y-115040750D01*
X105494938Y-115006126D01*
X105330966Y-114938206D01*
X105183396Y-114839603D01*
X105057897Y-114714104D01*
X104959294Y-114566534D01*
X104891374Y-114402562D01*
X104856750Y-114228491D01*
X104856750Y-114051009D01*
X104891374Y-113876938D01*
X104959294Y-113712966D01*
X105057897Y-113565396D01*
X105183396Y-113439897D01*
X105330966Y-113341294D01*
X105494938Y-113273374D01*
X105669009Y-113238750D01*
X105846491Y-113238750D01*
X106020562Y-113273374D01*
X106020562Y-113273374D01*
G37*
G36*
X135484562Y-113273374D02*
X135648534Y-113341294D01*
X135796104Y-113439897D01*
X135921603Y-113565396D01*
X136020206Y-113712966D01*
X136088126Y-113876938D01*
X136122750Y-114051009D01*
X136122750Y-114228491D01*
X136088126Y-114402562D01*
X136020206Y-114566534D01*
X135921603Y-114714104D01*
X135796104Y-114839603D01*
X135648534Y-114938206D01*
X135484562Y-115006126D01*
X135310491Y-115040750D01*
X135133009Y-115040750D01*
X134958938Y-115006126D01*
X134794966Y-114938206D01*
X134647396Y-114839603D01*
X134521897Y-114714104D01*
X134423294Y-114566534D01*
X134355374Y-114402562D01*
X134320750Y-114228491D01*
X134320750Y-114051009D01*
X134355374Y-113876938D01*
X134423294Y-113712966D01*
X134521897Y-113565396D01*
X134647396Y-113439897D01*
X134794966Y-113341294D01*
X134958938Y-113273374D01*
X135133009Y-113238750D01*
X135310491Y-113238750D01*
X135484562Y-113273374D01*
X135484562Y-113273374D01*
G37*
G36*
X125324562Y-113273374D02*
X125488534Y-113341294D01*
X125636104Y-113439897D01*
X125761603Y-113565396D01*
X125860206Y-113712966D01*
X125928126Y-113876938D01*
X125962750Y-114051009D01*
X125962750Y-114228491D01*
X125928126Y-114402562D01*
X125860206Y-114566534D01*
X125761603Y-114714104D01*
X125636104Y-114839603D01*
X125488534Y-114938206D01*
X125324562Y-115006126D01*
X125150491Y-115040750D01*
X124973009Y-115040750D01*
X124798938Y-115006126D01*
X124634966Y-114938206D01*
X124487396Y-114839603D01*
X124361897Y-114714104D01*
X124263294Y-114566534D01*
X124195374Y-114402562D01*
X124160750Y-114228491D01*
X124160750Y-114051009D01*
X124195374Y-113876938D01*
X124263294Y-113712966D01*
X124361897Y-113565396D01*
X124487396Y-113439897D01*
X124634966Y-113341294D01*
X124798938Y-113273374D01*
X124973009Y-113238750D01*
X125150491Y-113238750D01*
X125324562Y-113273374D01*
X125324562Y-113273374D01*
G37*
G36*
X116180562Y-113273374D02*
X116344534Y-113341294D01*
X116492104Y-113439897D01*
X116617603Y-113565396D01*
X116716206Y-113712966D01*
X116784126Y-113876938D01*
X116818750Y-114051009D01*
X116818750Y-114228491D01*
X116784126Y-114402562D01*
X116716206Y-114566534D01*
X116617603Y-114714104D01*
X116492104Y-114839603D01*
X116344534Y-114938206D01*
X116180562Y-115006126D01*
X116006491Y-115040750D01*
X115829009Y-115040750D01*
X115654938Y-115006126D01*
X115490966Y-114938206D01*
X115343396Y-114839603D01*
X115217897Y-114714104D01*
X115119294Y-114566534D01*
X115051374Y-114402562D01*
X115016750Y-114228491D01*
X115016750Y-114051009D01*
X115051374Y-113876938D01*
X115119294Y-113712966D01*
X115217897Y-113565396D01*
X115343396Y-113439897D01*
X115490966Y-113341294D01*
X115654938Y-113273374D01*
X115829009Y-113238750D01*
X116006491Y-113238750D01*
X116180562Y-113273374D01*
X116180562Y-113273374D01*
G37*
G36*
X107363484Y-110492982D02*
X107572952Y-110579746D01*
X107761473Y-110705712D01*
X107921788Y-110866027D01*
X108047754Y-111054548D01*
X108134518Y-111264016D01*
X108178750Y-111486385D01*
X108178750Y-111713115D01*
X108134518Y-111935484D01*
X108047754Y-112144952D01*
X107921788Y-112333473D01*
X107761473Y-112493788D01*
X107572952Y-112619754D01*
X107363484Y-112706518D01*
X107141115Y-112750750D01*
X106914385Y-112750750D01*
X106692016Y-112706518D01*
X106482548Y-112619754D01*
X106294027Y-112493788D01*
X106133712Y-112333473D01*
X106007746Y-112144952D01*
X105920982Y-111935484D01*
X105876750Y-111713115D01*
X105876750Y-111486385D01*
X105920982Y-111264016D01*
X106007746Y-111054548D01*
X106133712Y-110866027D01*
X106294027Y-110705712D01*
X106482548Y-110579746D01*
X106692016Y-110492982D01*
X106914385Y-110448750D01*
X107141115Y-110448750D01*
X107363484Y-110492982D01*
X107363484Y-110492982D01*
G37*
G36*
X126667484Y-110492982D02*
X126876952Y-110579746D01*
X127065473Y-110705712D01*
X127225788Y-110866027D01*
X127351754Y-111054548D01*
X127438518Y-111264016D01*
X127482750Y-111486385D01*
X127482750Y-111713115D01*
X127438518Y-111935484D01*
X127351754Y-112144952D01*
X127225788Y-112333473D01*
X127065473Y-112493788D01*
X126876952Y-112619754D01*
X126667484Y-112706518D01*
X126445115Y-112750750D01*
X126218385Y-112750750D01*
X125996016Y-112706518D01*
X125786548Y-112619754D01*
X125598027Y-112493788D01*
X125437712Y-112333473D01*
X125311746Y-112144952D01*
X125224982Y-111935484D01*
X125180750Y-111713115D01*
X125180750Y-111486385D01*
X125224982Y-111264016D01*
X125311746Y-111054548D01*
X125437712Y-110866027D01*
X125598027Y-110705712D01*
X125786548Y-110579746D01*
X125996016Y-110492982D01*
X126218385Y-110448750D01*
X126445115Y-110448750D01*
X126667484Y-110492982D01*
X126667484Y-110492982D01*
G37*
G36*
X133017484Y-107952982D02*
X133226952Y-108039746D01*
X133415473Y-108165712D01*
X133575788Y-108326027D01*
X133701754Y-108514548D01*
X133788518Y-108724016D01*
X133832750Y-108946385D01*
X133832750Y-109173115D01*
X133788518Y-109395484D01*
X133701754Y-109604952D01*
X133575788Y-109793473D01*
X133415473Y-109953788D01*
X133226952Y-110079754D01*
X133017484Y-110166518D01*
X132795115Y-110210750D01*
X132568385Y-110210750D01*
X132346016Y-110166518D01*
X132136548Y-110079754D01*
X131948027Y-109953788D01*
X131787712Y-109793473D01*
X131661746Y-109604952D01*
X131574982Y-109395484D01*
X131530750Y-109173115D01*
X131530750Y-108946385D01*
X131574982Y-108724016D01*
X131661746Y-108514548D01*
X131787712Y-108326027D01*
X131948027Y-108165712D01*
X132136548Y-108039746D01*
X132346016Y-107952982D01*
X132568385Y-107908750D01*
X132795115Y-107908750D01*
X133017484Y-107952982D01*
X133017484Y-107952982D01*
G37*
G36*
X113713484Y-107952982D02*
X113922952Y-108039746D01*
X114111473Y-108165712D01*
X114271788Y-108326027D01*
X114397754Y-108514548D01*
X114484518Y-108724016D01*
X114528750Y-108946385D01*
X114528750Y-109173115D01*
X114484518Y-109395484D01*
X114397754Y-109604952D01*
X114271788Y-109793473D01*
X114111473Y-109953788D01*
X113922952Y-110079754D01*
X113713484Y-110166518D01*
X113491115Y-110210750D01*
X113264385Y-110210750D01*
X113042016Y-110166518D01*
X112832548Y-110079754D01*
X112644027Y-109953788D01*
X112483712Y-109793473D01*
X112357746Y-109604952D01*
X112270982Y-109395484D01*
X112226750Y-109173115D01*
X112226750Y-108946385D01*
X112270982Y-108724016D01*
X112357746Y-108514548D01*
X112483712Y-108326027D01*
X112644027Y-108165712D01*
X112832548Y-108039746D01*
X113042016Y-107952982D01*
X113264385Y-107908750D01*
X113491115Y-107908750D01*
X113713484Y-107952982D01*
X113713484Y-107952982D01*
G37*
G36*
X130740002Y-92863568D02*
X130740004Y-92863569D01*
X130740005Y-92863569D01*
X131113263Y-93018177D01*
X131401489Y-93210764D01*
X131449189Y-93242636D01*
X131734864Y-93528311D01*
X131734866Y-93528314D01*
X131959323Y-93864237D01*
X131988530Y-93934750D01*
X132113932Y-94237498D01*
X132192750Y-94633743D01*
X132192750Y-95037757D01*
X132118686Y-95410104D01*
X132113931Y-95434005D01*
X131959323Y-95807263D01*
X131737893Y-96138655D01*
X131734864Y-96143189D01*
X131449189Y-96428864D01*
X131449186Y-96428866D01*
X131113263Y-96653323D01*
X130740005Y-96807931D01*
X130740004Y-96807931D01*
X130740002Y-96807932D01*
X130343757Y-96886750D01*
X129939743Y-96886750D01*
X129543498Y-96807932D01*
X129543496Y-96807931D01*
X129543495Y-96807931D01*
X129170237Y-96653323D01*
X128834314Y-96428866D01*
X128834311Y-96428864D01*
X128548636Y-96143189D01*
X128545607Y-96138655D01*
X128324177Y-95807263D01*
X128169569Y-95434005D01*
X128164815Y-95410104D01*
X128090750Y-95037757D01*
X128090750Y-94633743D01*
X128169568Y-94237498D01*
X128294970Y-93934750D01*
X128324177Y-93864237D01*
X128548634Y-93528314D01*
X128548636Y-93528311D01*
X128834311Y-93242636D01*
X128882011Y-93210764D01*
X129170237Y-93018177D01*
X129543495Y-92863569D01*
X129543496Y-92863569D01*
X129543498Y-92863568D01*
X129939743Y-92784750D01*
X130343757Y-92784750D01*
X130740002Y-92863568D01*
X130740002Y-92863568D01*
G37*
G36*
X111436002Y-92863568D02*
X111436004Y-92863569D01*
X111436005Y-92863569D01*
X111809263Y-93018177D01*
X112097489Y-93210764D01*
X112145189Y-93242636D01*
X112430864Y-93528311D01*
X112430866Y-93528314D01*
X112655323Y-93864237D01*
X112684530Y-93934750D01*
X112809932Y-94237498D01*
X112888750Y-94633743D01*
X112888750Y-95037757D01*
X112814686Y-95410104D01*
X112809931Y-95434005D01*
X112655323Y-95807263D01*
X112433893Y-96138655D01*
X112430864Y-96143189D01*
X112145189Y-96428864D01*
X112145186Y-96428866D01*
X111809263Y-96653323D01*
X111436005Y-96807931D01*
X111436004Y-96807931D01*
X111436002Y-96807932D01*
X111039757Y-96886750D01*
X110635743Y-96886750D01*
X110239498Y-96807932D01*
X110239496Y-96807931D01*
X110239495Y-96807931D01*
X109866237Y-96653323D01*
X109530314Y-96428866D01*
X109530311Y-96428864D01*
X109244636Y-96143189D01*
X109241607Y-96138655D01*
X109020177Y-95807263D01*
X108865569Y-95434005D01*
X108860815Y-95410104D01*
X108786750Y-95037757D01*
X108786750Y-94633743D01*
X108865568Y-94237498D01*
X108990970Y-93934750D01*
X109020177Y-93864237D01*
X109244634Y-93528314D01*
X109244636Y-93528311D01*
X109530311Y-93242636D01*
X109578011Y-93210764D01*
X109866237Y-93018177D01*
X110239495Y-92863569D01*
X110239496Y-92863569D01*
X110239498Y-92863568D01*
X110635743Y-92784750D01*
X111039757Y-92784750D01*
X111436002Y-92863568D01*
X111436002Y-92863568D01*
G37*
G36*
X118705978Y-94271453D02*
X118860850Y-94335603D01*
X119000231Y-94428735D01*
X119118765Y-94547269D01*
X119211897Y-94686650D01*
X119276047Y-94841522D01*
X119308750Y-95005934D01*
X119308750Y-95173566D01*
X119276047Y-95337978D01*
X119211897Y-95492850D01*
X119118765Y-95632231D01*
X119000231Y-95750765D01*
X118860850Y-95843897D01*
X118705978Y-95908047D01*
X118541566Y-95940750D01*
X118373934Y-95940750D01*
X118209522Y-95908047D01*
X118054650Y-95843897D01*
X117915269Y-95750765D01*
X117796735Y-95632231D01*
X117703603Y-95492850D01*
X117639453Y-95337978D01*
X117606750Y-95173566D01*
X117606750Y-95005934D01*
X117639453Y-94841522D01*
X117703603Y-94686650D01*
X117796735Y-94547269D01*
X117915269Y-94428735D01*
X118054650Y-94335603D01*
X118209522Y-94271453D01*
X118373934Y-94238750D01*
X118541566Y-94238750D01*
X118705978Y-94271453D01*
X118705978Y-94271453D01*
G37*
G36*
X103465978Y-94271453D02*
X103620850Y-94335603D01*
X103760231Y-94428735D01*
X103878765Y-94547269D01*
X103971897Y-94686650D01*
X104036047Y-94841522D01*
X104068750Y-95005934D01*
X104068750Y-95173566D01*
X104036047Y-95337978D01*
X103971897Y-95492850D01*
X103878765Y-95632231D01*
X103760231Y-95750765D01*
X103620850Y-95843897D01*
X103465978Y-95908047D01*
X103301566Y-95940750D01*
X103133934Y-95940750D01*
X102969522Y-95908047D01*
X102814650Y-95843897D01*
X102675269Y-95750765D01*
X102556735Y-95632231D01*
X102463603Y-95492850D01*
X102399453Y-95337978D01*
X102366750Y-95173566D01*
X102366750Y-95005934D01*
X102399453Y-94841522D01*
X102463603Y-94686650D01*
X102556735Y-94547269D01*
X102675269Y-94428735D01*
X102814650Y-94335603D01*
X102969522Y-94271453D01*
X103133934Y-94238750D01*
X103301566Y-94238750D01*
X103465978Y-94271453D01*
X103465978Y-94271453D01*
G37*
G36*
X106020562Y-93969374D02*
X106184534Y-94037294D01*
X106332104Y-94135897D01*
X106457603Y-94261396D01*
X106556206Y-94408966D01*
X106624126Y-94572938D01*
X106658750Y-94747009D01*
X106658750Y-94924491D01*
X106624126Y-95098562D01*
X106556206Y-95262534D01*
X106457603Y-95410104D01*
X106332104Y-95535603D01*
X106184534Y-95634206D01*
X106020562Y-95702126D01*
X105846491Y-95736750D01*
X105669009Y-95736750D01*
X105494938Y-95702126D01*
X105330966Y-95634206D01*
X105183396Y-95535603D01*
X105057897Y-95410104D01*
X104959294Y-95262534D01*
X104891374Y-95098562D01*
X104856750Y-94924491D01*
X104856750Y-94747009D01*
X104891374Y-94572938D01*
X104959294Y-94408966D01*
X105057897Y-94261396D01*
X105183396Y-94135897D01*
X105330966Y-94037294D01*
X105494938Y-93969374D01*
X105669009Y-93934750D01*
X105846491Y-93934750D01*
X106020562Y-93969374D01*
X106020562Y-93969374D01*
G37*
G36*
X116180562Y-93969374D02*
X116344534Y-94037294D01*
X116492104Y-94135897D01*
X116617603Y-94261396D01*
X116716206Y-94408966D01*
X116784126Y-94572938D01*
X116818750Y-94747009D01*
X116818750Y-94924491D01*
X116784126Y-95098562D01*
X116716206Y-95262534D01*
X116617603Y-95410104D01*
X116492104Y-95535603D01*
X116344534Y-95634206D01*
X116180562Y-95702126D01*
X116006491Y-95736750D01*
X115829009Y-95736750D01*
X115654938Y-95702126D01*
X115490966Y-95634206D01*
X115343396Y-95535603D01*
X115217897Y-95410104D01*
X115119294Y-95262534D01*
X115051374Y-95098562D01*
X115016750Y-94924491D01*
X115016750Y-94747009D01*
X115051374Y-94572938D01*
X115119294Y-94408966D01*
X115217897Y-94261396D01*
X115343396Y-94135897D01*
X115490966Y-94037294D01*
X115654938Y-93969374D01*
X115829009Y-93934750D01*
X116006491Y-93934750D01*
X116180562Y-93969374D01*
X116180562Y-93969374D01*
G37*
G36*
X135484562Y-93969374D02*
X135648534Y-94037294D01*
X135796104Y-94135897D01*
X135921603Y-94261396D01*
X136020206Y-94408966D01*
X136088126Y-94572938D01*
X136122750Y-94747009D01*
X136122750Y-94924491D01*
X136088126Y-95098562D01*
X136020206Y-95262534D01*
X135921603Y-95410104D01*
X135796104Y-95535603D01*
X135648534Y-95634206D01*
X135484562Y-95702126D01*
X135310491Y-95736750D01*
X135133009Y-95736750D01*
X134958938Y-95702126D01*
X134794966Y-95634206D01*
X134647396Y-95535603D01*
X134521897Y-95410104D01*
X134423294Y-95262534D01*
X134355374Y-95098562D01*
X134320750Y-94924491D01*
X134320750Y-94747009D01*
X134355374Y-94572938D01*
X134423294Y-94408966D01*
X134521897Y-94261396D01*
X134647396Y-94135897D01*
X134794966Y-94037294D01*
X134958938Y-93969374D01*
X135133009Y-93934750D01*
X135310491Y-93934750D01*
X135484562Y-93969374D01*
X135484562Y-93969374D01*
G37*
G36*
X125324562Y-93969374D02*
X125488534Y-94037294D01*
X125636104Y-94135897D01*
X125761603Y-94261396D01*
X125860206Y-94408966D01*
X125928126Y-94572938D01*
X125962750Y-94747009D01*
X125962750Y-94924491D01*
X125928126Y-95098562D01*
X125860206Y-95262534D01*
X125761603Y-95410104D01*
X125636104Y-95535603D01*
X125488534Y-95634206D01*
X125324562Y-95702126D01*
X125150491Y-95736750D01*
X124973009Y-95736750D01*
X124798938Y-95702126D01*
X124634966Y-95634206D01*
X124487396Y-95535603D01*
X124361897Y-95410104D01*
X124263294Y-95262534D01*
X124195374Y-95098562D01*
X124160750Y-94924491D01*
X124160750Y-94747009D01*
X124195374Y-94572938D01*
X124263294Y-94408966D01*
X124361897Y-94261396D01*
X124487396Y-94135897D01*
X124634966Y-94037294D01*
X124798938Y-93969374D01*
X124973009Y-93934750D01*
X125150491Y-93934750D01*
X125324562Y-93969374D01*
X125324562Y-93969374D01*
G37*
G36*
X107363484Y-91188982D02*
X107572952Y-91275746D01*
X107761473Y-91401712D01*
X107921788Y-91562027D01*
X108047754Y-91750548D01*
X108134518Y-91960016D01*
X108178750Y-92182385D01*
X108178750Y-92409115D01*
X108134518Y-92631484D01*
X108047754Y-92840952D01*
X107921788Y-93029473D01*
X107761473Y-93189788D01*
X107572952Y-93315754D01*
X107363484Y-93402518D01*
X107141115Y-93446750D01*
X106914385Y-93446750D01*
X106692016Y-93402518D01*
X106482548Y-93315754D01*
X106294027Y-93189788D01*
X106133712Y-93029473D01*
X106007746Y-92840952D01*
X105920982Y-92631484D01*
X105876750Y-92409115D01*
X105876750Y-92182385D01*
X105920982Y-91960016D01*
X106007746Y-91750548D01*
X106133712Y-91562027D01*
X106294027Y-91401712D01*
X106482548Y-91275746D01*
X106692016Y-91188982D01*
X106914385Y-91144750D01*
X107141115Y-91144750D01*
X107363484Y-91188982D01*
X107363484Y-91188982D01*
G37*
G36*
X126667484Y-91188982D02*
X126876952Y-91275746D01*
X127065473Y-91401712D01*
X127225788Y-91562027D01*
X127351754Y-91750548D01*
X127438518Y-91960016D01*
X127482750Y-92182385D01*
X127482750Y-92409115D01*
X127438518Y-92631484D01*
X127351754Y-92840952D01*
X127225788Y-93029473D01*
X127065473Y-93189788D01*
X126876952Y-93315754D01*
X126667484Y-93402518D01*
X126445115Y-93446750D01*
X126218385Y-93446750D01*
X125996016Y-93402518D01*
X125786548Y-93315754D01*
X125598027Y-93189788D01*
X125437712Y-93029473D01*
X125311746Y-92840952D01*
X125224982Y-92631484D01*
X125180750Y-92409115D01*
X125180750Y-92182385D01*
X125224982Y-91960016D01*
X125311746Y-91750548D01*
X125437712Y-91562027D01*
X125598027Y-91401712D01*
X125786548Y-91275746D01*
X125996016Y-91188982D01*
X126218385Y-91144750D01*
X126445115Y-91144750D01*
X126667484Y-91188982D01*
X126667484Y-91188982D01*
G37*
G36*
X103465978Y-91731453D02*
X103620850Y-91795603D01*
X103760231Y-91888735D01*
X103878765Y-92007269D01*
X103971897Y-92146650D01*
X104036047Y-92301522D01*
X104068750Y-92465934D01*
X104068750Y-92633566D01*
X104036047Y-92797978D01*
X103971897Y-92952850D01*
X103878765Y-93092231D01*
X103760231Y-93210765D01*
X103620850Y-93303897D01*
X103465978Y-93368047D01*
X103301566Y-93400750D01*
X103133934Y-93400750D01*
X102969522Y-93368047D01*
X102814650Y-93303897D01*
X102675269Y-93210765D01*
X102556735Y-93092231D01*
X102463603Y-92952850D01*
X102399453Y-92797978D01*
X102366750Y-92633566D01*
X102366750Y-92465934D01*
X102399453Y-92301522D01*
X102463603Y-92146650D01*
X102556735Y-92007269D01*
X102675269Y-91888735D01*
X102814650Y-91795603D01*
X102969522Y-91731453D01*
X103133934Y-91698750D01*
X103301566Y-91698750D01*
X103465978Y-91731453D01*
X103465978Y-91731453D01*
G37*
G36*
X118705978Y-91731453D02*
X118860850Y-91795603D01*
X119000231Y-91888735D01*
X119118765Y-92007269D01*
X119211897Y-92146650D01*
X119276047Y-92301522D01*
X119308750Y-92465934D01*
X119308750Y-92633566D01*
X119276047Y-92797978D01*
X119211897Y-92952850D01*
X119118765Y-93092231D01*
X119000231Y-93210765D01*
X118860850Y-93303897D01*
X118705978Y-93368047D01*
X118541566Y-93400750D01*
X118373934Y-93400750D01*
X118209522Y-93368047D01*
X118054650Y-93303897D01*
X117915269Y-93210765D01*
X117796735Y-93092231D01*
X117703603Y-92952850D01*
X117639453Y-92797978D01*
X117606750Y-92633566D01*
X117606750Y-92465934D01*
X117639453Y-92301522D01*
X117703603Y-92146650D01*
X117796735Y-92007269D01*
X117915269Y-91888735D01*
X118054650Y-91795603D01*
X118209522Y-91731453D01*
X118373934Y-91698750D01*
X118541566Y-91698750D01*
X118705978Y-91731453D01*
X118705978Y-91731453D01*
G37*
G36*
X113713484Y-88648982D02*
X113922952Y-88735746D01*
X114111473Y-88861712D01*
X114271788Y-89022027D01*
X114397754Y-89210548D01*
X114484518Y-89420016D01*
X114528750Y-89642385D01*
X114528750Y-89869115D01*
X114484518Y-90091484D01*
X114397754Y-90300952D01*
X114271788Y-90489473D01*
X114111473Y-90649788D01*
X113922952Y-90775754D01*
X113713484Y-90862518D01*
X113491115Y-90906750D01*
X113264385Y-90906750D01*
X113042016Y-90862518D01*
X112832548Y-90775754D01*
X112644027Y-90649788D01*
X112483712Y-90489473D01*
X112357746Y-90300952D01*
X112270982Y-90091484D01*
X112226750Y-89869115D01*
X112226750Y-89642385D01*
X112270982Y-89420016D01*
X112357746Y-89210548D01*
X112483712Y-89022027D01*
X112644027Y-88861712D01*
X112832548Y-88735746D01*
X113042016Y-88648982D01*
X113264385Y-88604750D01*
X113491115Y-88604750D01*
X113713484Y-88648982D01*
X113713484Y-88648982D01*
G37*
G36*
X133017484Y-88648982D02*
X133226952Y-88735746D01*
X133415473Y-88861712D01*
X133575788Y-89022027D01*
X133701754Y-89210548D01*
X133788518Y-89420016D01*
X133832750Y-89642385D01*
X133832750Y-89869115D01*
X133788518Y-90091484D01*
X133701754Y-90300952D01*
X133575788Y-90489473D01*
X133415473Y-90649788D01*
X133226952Y-90775754D01*
X133017484Y-90862518D01*
X132795115Y-90906750D01*
X132568385Y-90906750D01*
X132346016Y-90862518D01*
X132136548Y-90775754D01*
X131948027Y-90649788D01*
X131787712Y-90489473D01*
X131661746Y-90300952D01*
X131574982Y-90091484D01*
X131530750Y-89869115D01*
X131530750Y-89642385D01*
X131574982Y-89420016D01*
X131661746Y-89210548D01*
X131787712Y-89022027D01*
X131948027Y-88861712D01*
X132136548Y-88735746D01*
X132346016Y-88648982D01*
X132568385Y-88604750D01*
X132795115Y-88604750D01*
X133017484Y-88648982D01*
X133017484Y-88648982D01*
G37*
G36*
X103465978Y-89191453D02*
X103620850Y-89255603D01*
X103760231Y-89348735D01*
X103878765Y-89467269D01*
X103971897Y-89606650D01*
X104036047Y-89761522D01*
X104068750Y-89925934D01*
X104068750Y-90093566D01*
X104036047Y-90257978D01*
X103971897Y-90412850D01*
X103878765Y-90552231D01*
X103760231Y-90670765D01*
X103620850Y-90763897D01*
X103465978Y-90828047D01*
X103301566Y-90860750D01*
X103133934Y-90860750D01*
X102969522Y-90828047D01*
X102814650Y-90763897D01*
X102675269Y-90670765D01*
X102556735Y-90552231D01*
X102463603Y-90412850D01*
X102399453Y-90257978D01*
X102366750Y-90093566D01*
X102366750Y-89925934D01*
X102399453Y-89761522D01*
X102463603Y-89606650D01*
X102556735Y-89467269D01*
X102675269Y-89348735D01*
X102814650Y-89255603D01*
X102969522Y-89191453D01*
X103133934Y-89158750D01*
X103301566Y-89158750D01*
X103465978Y-89191453D01*
X103465978Y-89191453D01*
G37*
G36*
X118705978Y-89191453D02*
X118860850Y-89255603D01*
X119000231Y-89348735D01*
X119118765Y-89467269D01*
X119211897Y-89606650D01*
X119276047Y-89761522D01*
X119308750Y-89925934D01*
X119308750Y-90093566D01*
X119276047Y-90257978D01*
X119211897Y-90412850D01*
X119118765Y-90552231D01*
X119000231Y-90670765D01*
X118860850Y-90763897D01*
X118705978Y-90828047D01*
X118541566Y-90860750D01*
X118373934Y-90860750D01*
X118209522Y-90828047D01*
X118054650Y-90763897D01*
X117915269Y-90670765D01*
X117796735Y-90552231D01*
X117703603Y-90412850D01*
X117639453Y-90257978D01*
X117606750Y-90093566D01*
X117606750Y-89925934D01*
X117639453Y-89761522D01*
X117703603Y-89606650D01*
X117796735Y-89467269D01*
X117915269Y-89348735D01*
X118054650Y-89255603D01*
X118209522Y-89191453D01*
X118373934Y-89158750D01*
X118541566Y-89158750D01*
X118705978Y-89191453D01*
X118705978Y-89191453D01*
G37*
G36*
X103465978Y-86651453D02*
X103620850Y-86715603D01*
X103760231Y-86808735D01*
X103878765Y-86927269D01*
X103971897Y-87066650D01*
X104036047Y-87221522D01*
X104068750Y-87385934D01*
X104068750Y-87553566D01*
X104036047Y-87717978D01*
X103971897Y-87872850D01*
X103878765Y-88012231D01*
X103760231Y-88130765D01*
X103620850Y-88223897D01*
X103465978Y-88288047D01*
X103301566Y-88320750D01*
X103133934Y-88320750D01*
X102969522Y-88288047D01*
X102814650Y-88223897D01*
X102675269Y-88130765D01*
X102556735Y-88012231D01*
X102463603Y-87872850D01*
X102399453Y-87717978D01*
X102366750Y-87553566D01*
X102366750Y-87385934D01*
X102399453Y-87221522D01*
X102463603Y-87066650D01*
X102556735Y-86927269D01*
X102675269Y-86808735D01*
X102814650Y-86715603D01*
X102969522Y-86651453D01*
X103133934Y-86618750D01*
X103301566Y-86618750D01*
X103465978Y-86651453D01*
X103465978Y-86651453D01*
G37*
G36*
X118705978Y-86651453D02*
X118860850Y-86715603D01*
X119000231Y-86808735D01*
X119118765Y-86927269D01*
X119211897Y-87066650D01*
X119276047Y-87221522D01*
X119308750Y-87385934D01*
X119308750Y-87553566D01*
X119276047Y-87717978D01*
X119211897Y-87872850D01*
X119118765Y-88012231D01*
X119000231Y-88130765D01*
X118860850Y-88223897D01*
X118705978Y-88288047D01*
X118541566Y-88320750D01*
X118373934Y-88320750D01*
X118209522Y-88288047D01*
X118054650Y-88223897D01*
X117915269Y-88130765D01*
X117796735Y-88012231D01*
X117703603Y-87872850D01*
X117639453Y-87717978D01*
X117606750Y-87553566D01*
X117606750Y-87385934D01*
X117639453Y-87221522D01*
X117703603Y-87066650D01*
X117796735Y-86927269D01*
X117915269Y-86808735D01*
X118054650Y-86715603D01*
X118209522Y-86651453D01*
X118373934Y-86618750D01*
X118541566Y-86618750D01*
X118705978Y-86651453D01*
X118705978Y-86651453D01*
G37*
G36*
X118705978Y-84111453D02*
X118860850Y-84175603D01*
X119000231Y-84268735D01*
X119118765Y-84387269D01*
X119211897Y-84526650D01*
X119276047Y-84681522D01*
X119308750Y-84845934D01*
X119308750Y-85013566D01*
X119276047Y-85177978D01*
X119211897Y-85332850D01*
X119118765Y-85472231D01*
X119000231Y-85590765D01*
X118860850Y-85683897D01*
X118705978Y-85748047D01*
X118541566Y-85780750D01*
X118373934Y-85780750D01*
X118209522Y-85748047D01*
X118054650Y-85683897D01*
X117915269Y-85590765D01*
X117796735Y-85472231D01*
X117703603Y-85332850D01*
X117639453Y-85177978D01*
X117606750Y-85013566D01*
X117606750Y-84845934D01*
X117639453Y-84681522D01*
X117703603Y-84526650D01*
X117796735Y-84387269D01*
X117915269Y-84268735D01*
X118054650Y-84175603D01*
X118209522Y-84111453D01*
X118373934Y-84078750D01*
X118541566Y-84078750D01*
X118705978Y-84111453D01*
X118705978Y-84111453D01*
G37*
G36*
X103465978Y-84111453D02*
X103620850Y-84175603D01*
X103760231Y-84268735D01*
X103878765Y-84387269D01*
X103971897Y-84526650D01*
X104036047Y-84681522D01*
X104068750Y-84845934D01*
X104068750Y-85013566D01*
X104036047Y-85177978D01*
X103971897Y-85332850D01*
X103878765Y-85472231D01*
X103760231Y-85590765D01*
X103620850Y-85683897D01*
X103465978Y-85748047D01*
X103301566Y-85780750D01*
X103133934Y-85780750D01*
X102969522Y-85748047D01*
X102814650Y-85683897D01*
X102675269Y-85590765D01*
X102556735Y-85472231D01*
X102463603Y-85332850D01*
X102399453Y-85177978D01*
X102366750Y-85013566D01*
X102366750Y-84845934D01*
X102399453Y-84681522D01*
X102463603Y-84526650D01*
X102556735Y-84387269D01*
X102675269Y-84268735D01*
X102814650Y-84175603D01*
X102969522Y-84111453D01*
X103133934Y-84078750D01*
X103301566Y-84078750D01*
X103465978Y-84111453D01*
X103465978Y-84111453D01*
G37*
G36*
X118705978Y-81571453D02*
X118860850Y-81635603D01*
X119000231Y-81728735D01*
X119118765Y-81847269D01*
X119211897Y-81986650D01*
X119276047Y-82141522D01*
X119308750Y-82305934D01*
X119308750Y-82473566D01*
X119276047Y-82637978D01*
X119211897Y-82792850D01*
X119118765Y-82932231D01*
X119000231Y-83050765D01*
X118860850Y-83143897D01*
X118705978Y-83208047D01*
X118541566Y-83240750D01*
X118373934Y-83240750D01*
X118209522Y-83208047D01*
X118054650Y-83143897D01*
X117915269Y-83050765D01*
X117796735Y-82932231D01*
X117703603Y-82792850D01*
X117639453Y-82637978D01*
X117606750Y-82473566D01*
X117606750Y-82305934D01*
X117639453Y-82141522D01*
X117703603Y-81986650D01*
X117796735Y-81847269D01*
X117915269Y-81728735D01*
X118054650Y-81635603D01*
X118209522Y-81571453D01*
X118373934Y-81538750D01*
X118541566Y-81538750D01*
X118705978Y-81571453D01*
X118705978Y-81571453D01*
G37*
G36*
X103465978Y-81571453D02*
X103620850Y-81635603D01*
X103760231Y-81728735D01*
X103878765Y-81847269D01*
X103971897Y-81986650D01*
X104036047Y-82141522D01*
X104068750Y-82305934D01*
X104068750Y-82473566D01*
X104036047Y-82637978D01*
X103971897Y-82792850D01*
X103878765Y-82932231D01*
X103760231Y-83050765D01*
X103620850Y-83143897D01*
X103465978Y-83208047D01*
X103301566Y-83240750D01*
X103133934Y-83240750D01*
X102969522Y-83208047D01*
X102814650Y-83143897D01*
X102675269Y-83050765D01*
X102556735Y-82932231D01*
X102463603Y-82792850D01*
X102399453Y-82637978D01*
X102366750Y-82473566D01*
X102366750Y-82305934D01*
X102399453Y-82141522D01*
X102463603Y-81986650D01*
X102556735Y-81847269D01*
X102675269Y-81728735D01*
X102814650Y-81635603D01*
X102969522Y-81571453D01*
X103133934Y-81538750D01*
X103301566Y-81538750D01*
X103465978Y-81571453D01*
X103465978Y-81571453D01*
G37*
G36*
X103465978Y-79031453D02*
X103620850Y-79095603D01*
X103760231Y-79188735D01*
X103878765Y-79307269D01*
X103971897Y-79446650D01*
X104036047Y-79601522D01*
X104068750Y-79765934D01*
X104068750Y-79933566D01*
X104036047Y-80097978D01*
X103971897Y-80252850D01*
X103878765Y-80392231D01*
X103760231Y-80510765D01*
X103620850Y-80603897D01*
X103465978Y-80668047D01*
X103301566Y-80700750D01*
X103133934Y-80700750D01*
X102969522Y-80668047D01*
X102814650Y-80603897D01*
X102675269Y-80510765D01*
X102556735Y-80392231D01*
X102463603Y-80252850D01*
X102399453Y-80097978D01*
X102366750Y-79933566D01*
X102366750Y-79765934D01*
X102399453Y-79601522D01*
X102463603Y-79446650D01*
X102556735Y-79307269D01*
X102675269Y-79188735D01*
X102814650Y-79095603D01*
X102969522Y-79031453D01*
X103133934Y-78998750D01*
X103301566Y-78998750D01*
X103465978Y-79031453D01*
X103465978Y-79031453D01*
G37*
G36*
X118705978Y-79031453D02*
X118860850Y-79095603D01*
X119000231Y-79188735D01*
X119118765Y-79307269D01*
X119211897Y-79446650D01*
X119276047Y-79601522D01*
X119308750Y-79765934D01*
X119308750Y-79933566D01*
X119276047Y-80097978D01*
X119211897Y-80252850D01*
X119118765Y-80392231D01*
X119000231Y-80510765D01*
X118860850Y-80603897D01*
X118705978Y-80668047D01*
X118541566Y-80700750D01*
X118373934Y-80700750D01*
X118209522Y-80668047D01*
X118054650Y-80603897D01*
X117915269Y-80510765D01*
X117796735Y-80392231D01*
X117703603Y-80252850D01*
X117639453Y-80097978D01*
X117606750Y-79933566D01*
X117606750Y-79765934D01*
X117639453Y-79601522D01*
X117703603Y-79446650D01*
X117796735Y-79307269D01*
X117915269Y-79188735D01*
X118054650Y-79095603D01*
X118209522Y-79031453D01*
X118373934Y-78998750D01*
X118541566Y-78998750D01*
X118705978Y-79031453D01*
X118705978Y-79031453D01*
G37*
G36*
X118705978Y-76491453D02*
X118860850Y-76555603D01*
X119000231Y-76648735D01*
X119118765Y-76767269D01*
X119211897Y-76906650D01*
X119276047Y-77061522D01*
X119308750Y-77225934D01*
X119308750Y-77393566D01*
X119276047Y-77557978D01*
X119211897Y-77712850D01*
X119118765Y-77852231D01*
X119000231Y-77970765D01*
X118860850Y-78063897D01*
X118705978Y-78128047D01*
X118541566Y-78160750D01*
X118373934Y-78160750D01*
X118209522Y-78128047D01*
X118054650Y-78063897D01*
X117915269Y-77970765D01*
X117796735Y-77852231D01*
X117703603Y-77712850D01*
X117639453Y-77557978D01*
X117606750Y-77393566D01*
X117606750Y-77225934D01*
X117639453Y-77061522D01*
X117703603Y-76906650D01*
X117796735Y-76767269D01*
X117915269Y-76648735D01*
X118054650Y-76555603D01*
X118209522Y-76491453D01*
X118373934Y-76458750D01*
X118541566Y-76458750D01*
X118705978Y-76491453D01*
X118705978Y-76491453D01*
G37*
G36*
X103465978Y-76491453D02*
X103620850Y-76555603D01*
X103760231Y-76648735D01*
X103878765Y-76767269D01*
X103971897Y-76906650D01*
X104036047Y-77061522D01*
X104068750Y-77225934D01*
X104068750Y-77393566D01*
X104036047Y-77557978D01*
X103971897Y-77712850D01*
X103878765Y-77852231D01*
X103760231Y-77970765D01*
X103620850Y-78063897D01*
X103465978Y-78128047D01*
X103301566Y-78160750D01*
X103133934Y-78160750D01*
X102969522Y-78128047D01*
X102814650Y-78063897D01*
X102675269Y-77970765D01*
X102556735Y-77852231D01*
X102463603Y-77712850D01*
X102399453Y-77557978D01*
X102366750Y-77393566D01*
X102366750Y-77225934D01*
X102399453Y-77061522D01*
X102463603Y-76906650D01*
X102556735Y-76767269D01*
X102675269Y-76648735D01*
X102814650Y-76555603D01*
X102969522Y-76491453D01*
X103133934Y-76458750D01*
X103301566Y-76458750D01*
X103465978Y-76491453D01*
X103465978Y-76491453D01*
G37*
G36*
X111436002Y-73559568D02*
X111436004Y-73559569D01*
X111436005Y-73559569D01*
X111809263Y-73714177D01*
X112115428Y-73918750D01*
X112145189Y-73938636D01*
X112430864Y-74224311D01*
X112430866Y-74224314D01*
X112655323Y-74560237D01*
X112684530Y-74630750D01*
X112809932Y-74933498D01*
X112888750Y-75329743D01*
X112888750Y-75733757D01*
X112814686Y-76106104D01*
X112809931Y-76130005D01*
X112655323Y-76503263D01*
X112558121Y-76648736D01*
X112430864Y-76839189D01*
X112145189Y-77124864D01*
X112145186Y-77124866D01*
X111809263Y-77349323D01*
X111436005Y-77503931D01*
X111436004Y-77503931D01*
X111436002Y-77503932D01*
X111039757Y-77582750D01*
X110635743Y-77582750D01*
X110239498Y-77503932D01*
X110239496Y-77503931D01*
X110239495Y-77503931D01*
X109866237Y-77349323D01*
X109530314Y-77124866D01*
X109530311Y-77124864D01*
X109244636Y-76839189D01*
X109117379Y-76648736D01*
X109020177Y-76503263D01*
X108865569Y-76130005D01*
X108860815Y-76106104D01*
X108786750Y-75733757D01*
X108786750Y-75329743D01*
X108865568Y-74933498D01*
X108990970Y-74630750D01*
X109020177Y-74560237D01*
X109244634Y-74224314D01*
X109244636Y-74224311D01*
X109530311Y-73938636D01*
X109560072Y-73918750D01*
X109866237Y-73714177D01*
X110239495Y-73559569D01*
X110239496Y-73559569D01*
X110239498Y-73559568D01*
X110635743Y-73480750D01*
X111039757Y-73480750D01*
X111436002Y-73559568D01*
X111436002Y-73559568D01*
G37*
G36*
X130740002Y-73559568D02*
X130740004Y-73559569D01*
X130740005Y-73559569D01*
X131113263Y-73714177D01*
X131419428Y-73918750D01*
X131449189Y-73938636D01*
X131734864Y-74224311D01*
X131734866Y-74224314D01*
X131959323Y-74560237D01*
X131988530Y-74630750D01*
X132113932Y-74933498D01*
X132192750Y-75329743D01*
X132192750Y-75733757D01*
X132118686Y-76106104D01*
X132113931Y-76130005D01*
X131959323Y-76503263D01*
X131862121Y-76648736D01*
X131734864Y-76839189D01*
X131449189Y-77124864D01*
X131449186Y-77124866D01*
X131113263Y-77349323D01*
X130740005Y-77503931D01*
X130740004Y-77503931D01*
X130740002Y-77503932D01*
X130343757Y-77582750D01*
X129939743Y-77582750D01*
X129543498Y-77503932D01*
X129543496Y-77503931D01*
X129543495Y-77503931D01*
X129170237Y-77349323D01*
X128834314Y-77124866D01*
X128834311Y-77124864D01*
X128548636Y-76839189D01*
X128421379Y-76648736D01*
X128324177Y-76503263D01*
X128169569Y-76130005D01*
X128164815Y-76106104D01*
X128090750Y-75733757D01*
X128090750Y-75329743D01*
X128169568Y-74933498D01*
X128294970Y-74630750D01*
X128324177Y-74560237D01*
X128548634Y-74224314D01*
X128548636Y-74224311D01*
X128834311Y-73938636D01*
X128864072Y-73918750D01*
X129170237Y-73714177D01*
X129543495Y-73559569D01*
X129543496Y-73559569D01*
X129543498Y-73559568D01*
X129939743Y-73480750D01*
X130343757Y-73480750D01*
X130740002Y-73559568D01*
X130740002Y-73559568D01*
G37*
G36*
X116180562Y-74665374D02*
X116344534Y-74733294D01*
X116492104Y-74831897D01*
X116617603Y-74957396D01*
X116716206Y-75104966D01*
X116784126Y-75268938D01*
X116818750Y-75443009D01*
X116818750Y-75620491D01*
X116784126Y-75794562D01*
X116716206Y-75958534D01*
X116617603Y-76106104D01*
X116492104Y-76231603D01*
X116344534Y-76330206D01*
X116180562Y-76398126D01*
X116006491Y-76432750D01*
X115829009Y-76432750D01*
X115654938Y-76398126D01*
X115490966Y-76330206D01*
X115343396Y-76231603D01*
X115217897Y-76106104D01*
X115119294Y-75958534D01*
X115051374Y-75794562D01*
X115016750Y-75620491D01*
X115016750Y-75443009D01*
X115051374Y-75268938D01*
X115119294Y-75104966D01*
X115217897Y-74957396D01*
X115343396Y-74831897D01*
X115490966Y-74733294D01*
X115654938Y-74665374D01*
X115829009Y-74630750D01*
X116006491Y-74630750D01*
X116180562Y-74665374D01*
X116180562Y-74665374D01*
G37*
G36*
X106020562Y-74665374D02*
X106184534Y-74733294D01*
X106332104Y-74831897D01*
X106457603Y-74957396D01*
X106556206Y-75104966D01*
X106624126Y-75268938D01*
X106658750Y-75443009D01*
X106658750Y-75620491D01*
X106624126Y-75794562D01*
X106556206Y-75958534D01*
X106457603Y-76106104D01*
X106332104Y-76231603D01*
X106184534Y-76330206D01*
X106020562Y-76398126D01*
X105846491Y-76432750D01*
X105669009Y-76432750D01*
X105494938Y-76398126D01*
X105330966Y-76330206D01*
X105183396Y-76231603D01*
X105057897Y-76106104D01*
X104959294Y-75958534D01*
X104891374Y-75794562D01*
X104856750Y-75620491D01*
X104856750Y-75443009D01*
X104891374Y-75268938D01*
X104959294Y-75104966D01*
X105057897Y-74957396D01*
X105183396Y-74831897D01*
X105330966Y-74733294D01*
X105494938Y-74665374D01*
X105669009Y-74630750D01*
X105846491Y-74630750D01*
X106020562Y-74665374D01*
X106020562Y-74665374D01*
G37*
G36*
X125324562Y-74665374D02*
X125488534Y-74733294D01*
X125636104Y-74831897D01*
X125761603Y-74957396D01*
X125860206Y-75104966D01*
X125928126Y-75268938D01*
X125962750Y-75443009D01*
X125962750Y-75620491D01*
X125928126Y-75794562D01*
X125860206Y-75958534D01*
X125761603Y-76106104D01*
X125636104Y-76231603D01*
X125488534Y-76330206D01*
X125324562Y-76398126D01*
X125150491Y-76432750D01*
X124973009Y-76432750D01*
X124798938Y-76398126D01*
X124634966Y-76330206D01*
X124487396Y-76231603D01*
X124361897Y-76106104D01*
X124263294Y-75958534D01*
X124195374Y-75794562D01*
X124160750Y-75620491D01*
X124160750Y-75443009D01*
X124195374Y-75268938D01*
X124263294Y-75104966D01*
X124361897Y-74957396D01*
X124487396Y-74831897D01*
X124634966Y-74733294D01*
X124798938Y-74665374D01*
X124973009Y-74630750D01*
X125150491Y-74630750D01*
X125324562Y-74665374D01*
X125324562Y-74665374D01*
G37*
G36*
X135484562Y-74665374D02*
X135648534Y-74733294D01*
X135796104Y-74831897D01*
X135921603Y-74957396D01*
X136020206Y-75104966D01*
X136088126Y-75268938D01*
X136122750Y-75443009D01*
X136122750Y-75620491D01*
X136088126Y-75794562D01*
X136020206Y-75958534D01*
X135921603Y-76106104D01*
X135796104Y-76231603D01*
X135648534Y-76330206D01*
X135484562Y-76398126D01*
X135310491Y-76432750D01*
X135133009Y-76432750D01*
X134958938Y-76398126D01*
X134794966Y-76330206D01*
X134647396Y-76231603D01*
X134521897Y-76106104D01*
X134423294Y-75958534D01*
X134355374Y-75794562D01*
X134320750Y-75620491D01*
X134320750Y-75443009D01*
X134355374Y-75268938D01*
X134423294Y-75104966D01*
X134521897Y-74957396D01*
X134647396Y-74831897D01*
X134794966Y-74733294D01*
X134958938Y-74665374D01*
X135133009Y-74630750D01*
X135310491Y-74630750D01*
X135484562Y-74665374D01*
X135484562Y-74665374D01*
G37*
G36*
X103465978Y-73951453D02*
X103620850Y-74015603D01*
X103760231Y-74108735D01*
X103878765Y-74227269D01*
X103971897Y-74366650D01*
X104036047Y-74521522D01*
X104068750Y-74685934D01*
X104068750Y-74853566D01*
X104036047Y-75017978D01*
X103971897Y-75172850D01*
X103878765Y-75312231D01*
X103760231Y-75430765D01*
X103620850Y-75523897D01*
X103465978Y-75588047D01*
X103301566Y-75620750D01*
X103133934Y-75620750D01*
X102969522Y-75588047D01*
X102814650Y-75523897D01*
X102675269Y-75430765D01*
X102556735Y-75312231D01*
X102463603Y-75172850D01*
X102399453Y-75017978D01*
X102366750Y-74853566D01*
X102366750Y-74685934D01*
X102399453Y-74521522D01*
X102463603Y-74366650D01*
X102556735Y-74227269D01*
X102675269Y-74108735D01*
X102814650Y-74015603D01*
X102969522Y-73951453D01*
X103133934Y-73918750D01*
X103301566Y-73918750D01*
X103465978Y-73951453D01*
X103465978Y-73951453D01*
G37*
G36*
X118705978Y-73951453D02*
X118860850Y-74015603D01*
X119000231Y-74108735D01*
X119118765Y-74227269D01*
X119211897Y-74366650D01*
X119276047Y-74521522D01*
X119308750Y-74685934D01*
X119308750Y-74853566D01*
X119276047Y-75017978D01*
X119211897Y-75172850D01*
X119118765Y-75312231D01*
X119000231Y-75430765D01*
X118860850Y-75523897D01*
X118705978Y-75588047D01*
X118541566Y-75620750D01*
X118373934Y-75620750D01*
X118209522Y-75588047D01*
X118054650Y-75523897D01*
X117915269Y-75430765D01*
X117796735Y-75312231D01*
X117703603Y-75172850D01*
X117639453Y-75017978D01*
X117606750Y-74853566D01*
X117606750Y-74685934D01*
X117639453Y-74521522D01*
X117703603Y-74366650D01*
X117796735Y-74227269D01*
X117915269Y-74108735D01*
X118054650Y-74015603D01*
X118209522Y-73951453D01*
X118373934Y-73918750D01*
X118541566Y-73918750D01*
X118705978Y-73951453D01*
X118705978Y-73951453D01*
G37*
G36*
X107363484Y-71884982D02*
X107572952Y-71971746D01*
X107761473Y-72097712D01*
X107921788Y-72258027D01*
X108047754Y-72446548D01*
X108134518Y-72656016D01*
X108178750Y-72878385D01*
X108178750Y-73105115D01*
X108134518Y-73327484D01*
X108047754Y-73536952D01*
X107921788Y-73725473D01*
X107761473Y-73885788D01*
X107572952Y-74011754D01*
X107363484Y-74098518D01*
X107141115Y-74142750D01*
X106914385Y-74142750D01*
X106692016Y-74098518D01*
X106482548Y-74011754D01*
X106294027Y-73885788D01*
X106133712Y-73725473D01*
X106007746Y-73536952D01*
X105920982Y-73327484D01*
X105876750Y-73105115D01*
X105876750Y-72878385D01*
X105920982Y-72656016D01*
X106007746Y-72446548D01*
X106133712Y-72258027D01*
X106294027Y-72097712D01*
X106482548Y-71971746D01*
X106692016Y-71884982D01*
X106914385Y-71840750D01*
X107141115Y-71840750D01*
X107363484Y-71884982D01*
X107363484Y-71884982D01*
G37*
G36*
X126667484Y-71884982D02*
X126876952Y-71971746D01*
X127065473Y-72097712D01*
X127225788Y-72258027D01*
X127351754Y-72446548D01*
X127438518Y-72656016D01*
X127482750Y-72878385D01*
X127482750Y-73105115D01*
X127438518Y-73327484D01*
X127351754Y-73536952D01*
X127225788Y-73725473D01*
X127065473Y-73885788D01*
X126876952Y-74011754D01*
X126667484Y-74098518D01*
X126445115Y-74142750D01*
X126218385Y-74142750D01*
X125996016Y-74098518D01*
X125786548Y-74011754D01*
X125598027Y-73885788D01*
X125437712Y-73725473D01*
X125311746Y-73536952D01*
X125224982Y-73327484D01*
X125180750Y-73105115D01*
X125180750Y-72878385D01*
X125224982Y-72656016D01*
X125311746Y-72446548D01*
X125437712Y-72258027D01*
X125598027Y-72097712D01*
X125786548Y-71971746D01*
X125996016Y-71884982D01*
X126218385Y-71840750D01*
X126445115Y-71840750D01*
X126667484Y-71884982D01*
X126667484Y-71884982D01*
G37*
G36*
X103465978Y-71411453D02*
X103620850Y-71475603D01*
X103760231Y-71568735D01*
X103878765Y-71687269D01*
X103971897Y-71826650D01*
X104036047Y-71981522D01*
X104068750Y-72145934D01*
X104068750Y-72313566D01*
X104036047Y-72477978D01*
X103971897Y-72632850D01*
X103878765Y-72772231D01*
X103760231Y-72890765D01*
X103620850Y-72983897D01*
X103465978Y-73048047D01*
X103301566Y-73080750D01*
X103133934Y-73080750D01*
X102969522Y-73048047D01*
X102814650Y-72983897D01*
X102675269Y-72890765D01*
X102556735Y-72772231D01*
X102463603Y-72632850D01*
X102399453Y-72477978D01*
X102366750Y-72313566D01*
X102366750Y-72145934D01*
X102399453Y-71981522D01*
X102463603Y-71826650D01*
X102556735Y-71687269D01*
X102675269Y-71568735D01*
X102814650Y-71475603D01*
X102969522Y-71411453D01*
X103133934Y-71378750D01*
X103301566Y-71378750D01*
X103465978Y-71411453D01*
X103465978Y-71411453D01*
G37*
G36*
X118705978Y-71411453D02*
X118860850Y-71475603D01*
X119000231Y-71568735D01*
X119118765Y-71687269D01*
X119211897Y-71826650D01*
X119276047Y-71981522D01*
X119308750Y-72145934D01*
X119308750Y-72313566D01*
X119276047Y-72477978D01*
X119211897Y-72632850D01*
X119118765Y-72772231D01*
X119000231Y-72890765D01*
X118860850Y-72983897D01*
X118705978Y-73048047D01*
X118541566Y-73080750D01*
X118373934Y-73080750D01*
X118209522Y-73048047D01*
X118054650Y-72983897D01*
X117915269Y-72890765D01*
X117796735Y-72772231D01*
X117703603Y-72632850D01*
X117639453Y-72477978D01*
X117606750Y-72313566D01*
X117606750Y-72145934D01*
X117639453Y-71981522D01*
X117703603Y-71826650D01*
X117796735Y-71687269D01*
X117915269Y-71568735D01*
X118054650Y-71475603D01*
X118209522Y-71411453D01*
X118373934Y-71378750D01*
X118541566Y-71378750D01*
X118705978Y-71411453D01*
X118705978Y-71411453D01*
G37*
G36*
X133017484Y-69344982D02*
X133226952Y-69431746D01*
X133415473Y-69557712D01*
X133575788Y-69718027D01*
X133701754Y-69906548D01*
X133788518Y-70116016D01*
X133832750Y-70338385D01*
X133832750Y-70565115D01*
X133788518Y-70787484D01*
X133701754Y-70996952D01*
X133575788Y-71185473D01*
X133415473Y-71345788D01*
X133226952Y-71471754D01*
X133017484Y-71558518D01*
X132795115Y-71602750D01*
X132568385Y-71602750D01*
X132346016Y-71558518D01*
X132136548Y-71471754D01*
X131948027Y-71345788D01*
X131787712Y-71185473D01*
X131661746Y-70996952D01*
X131574982Y-70787484D01*
X131530750Y-70565115D01*
X131530750Y-70338385D01*
X131574982Y-70116016D01*
X131661746Y-69906548D01*
X131787712Y-69718027D01*
X131948027Y-69557712D01*
X132136548Y-69431746D01*
X132346016Y-69344982D01*
X132568385Y-69300750D01*
X132795115Y-69300750D01*
X133017484Y-69344982D01*
X133017484Y-69344982D01*
G37*
G36*
X113713484Y-69344982D02*
X113922952Y-69431746D01*
X114111473Y-69557712D01*
X114271788Y-69718027D01*
X114397754Y-69906548D01*
X114484518Y-70116016D01*
X114528750Y-70338385D01*
X114528750Y-70565115D01*
X114484518Y-70787484D01*
X114397754Y-70996952D01*
X114271788Y-71185473D01*
X114111473Y-71345788D01*
X113922952Y-71471754D01*
X113713484Y-71558518D01*
X113491115Y-71602750D01*
X113264385Y-71602750D01*
X113042016Y-71558518D01*
X112832548Y-71471754D01*
X112644027Y-71345788D01*
X112483712Y-71185473D01*
X112357746Y-70996952D01*
X112270982Y-70787484D01*
X112226750Y-70565115D01*
X112226750Y-70338385D01*
X112270982Y-70116016D01*
X112357746Y-69906548D01*
X112483712Y-69718027D01*
X112644027Y-69557712D01*
X112832548Y-69431746D01*
X113042016Y-69344982D01*
X113264385Y-69300750D01*
X113491115Y-69300750D01*
X113713484Y-69344982D01*
X113713484Y-69344982D01*
G37*
G36*
X103465978Y-68871453D02*
X103620850Y-68935603D01*
X103760231Y-69028735D01*
X103878765Y-69147269D01*
X103971897Y-69286650D01*
X104036047Y-69441522D01*
X104068750Y-69605934D01*
X104068750Y-69773566D01*
X104036047Y-69937978D01*
X103971897Y-70092850D01*
X103878765Y-70232231D01*
X103760231Y-70350765D01*
X103620850Y-70443897D01*
X103465978Y-70508047D01*
X103301566Y-70540750D01*
X103133934Y-70540750D01*
X102969522Y-70508047D01*
X102814650Y-70443897D01*
X102675269Y-70350765D01*
X102556735Y-70232231D01*
X102463603Y-70092850D01*
X102399453Y-69937978D01*
X102366750Y-69773566D01*
X102366750Y-69605934D01*
X102399453Y-69441522D01*
X102463603Y-69286650D01*
X102556735Y-69147269D01*
X102675269Y-69028735D01*
X102814650Y-68935603D01*
X102969522Y-68871453D01*
X103133934Y-68838750D01*
X103301566Y-68838750D01*
X103465978Y-68871453D01*
X103465978Y-68871453D01*
G37*
G36*
X118705978Y-68871453D02*
X118860850Y-68935603D01*
X119000231Y-69028735D01*
X119118765Y-69147269D01*
X119211897Y-69286650D01*
X119276047Y-69441522D01*
X119308750Y-69605934D01*
X119308750Y-69773566D01*
X119276047Y-69937978D01*
X119211897Y-70092850D01*
X119118765Y-70232231D01*
X119000231Y-70350765D01*
X118860850Y-70443897D01*
X118705978Y-70508047D01*
X118541566Y-70540750D01*
X118373934Y-70540750D01*
X118209522Y-70508047D01*
X118054650Y-70443897D01*
X117915269Y-70350765D01*
X117796735Y-70232231D01*
X117703603Y-70092850D01*
X117639453Y-69937978D01*
X117606750Y-69773566D01*
X117606750Y-69605934D01*
X117639453Y-69441522D01*
X117703603Y-69286650D01*
X117796735Y-69147269D01*
X117915269Y-69028735D01*
X118054650Y-68935603D01*
X118209522Y-68871453D01*
X118373934Y-68838750D01*
X118541566Y-68838750D01*
X118705978Y-68871453D01*
X118705978Y-68871453D01*
G37*
G36*
X142669484Y-68074982D02*
X142878952Y-68161746D01*
X143067473Y-68287712D01*
X143227788Y-68448027D01*
X143353754Y-68636548D01*
X143440518Y-68846016D01*
X143484750Y-69068385D01*
X143484750Y-69295115D01*
X143440518Y-69517484D01*
X143353754Y-69726952D01*
X143227788Y-69915473D01*
X143067473Y-70075788D01*
X142878952Y-70201754D01*
X142669484Y-70288518D01*
X142447115Y-70332750D01*
X142220385Y-70332750D01*
X141998016Y-70288518D01*
X141788548Y-70201754D01*
X141600027Y-70075788D01*
X141439712Y-69915473D01*
X141313746Y-69726952D01*
X141226982Y-69517484D01*
X141182750Y-69295115D01*
X141182750Y-69068385D01*
X141226982Y-68846016D01*
X141313746Y-68636548D01*
X141439712Y-68448027D01*
X141600027Y-68287712D01*
X141788548Y-68161746D01*
X141998016Y-68074982D01*
X142220385Y-68030750D01*
X142447115Y-68030750D01*
X142669484Y-68074982D01*
X142669484Y-68074982D01*
G37*
G36*
X98981484Y-68074982D02*
X99190952Y-68161746D01*
X99379473Y-68287712D01*
X99539788Y-68448027D01*
X99665754Y-68636548D01*
X99752518Y-68846016D01*
X99796750Y-69068385D01*
X99796750Y-69295115D01*
X99752518Y-69517484D01*
X99665754Y-69726952D01*
X99539788Y-69915473D01*
X99379473Y-70075788D01*
X99190952Y-70201754D01*
X98981484Y-70288518D01*
X98759115Y-70332750D01*
X98532385Y-70332750D01*
X98310016Y-70288518D01*
X98100548Y-70201754D01*
X97912027Y-70075788D01*
X97751712Y-69915473D01*
X97625746Y-69726952D01*
X97538982Y-69517484D01*
X97494750Y-69295115D01*
X97494750Y-69068385D01*
X97538982Y-68846016D01*
X97625746Y-68636548D01*
X97751712Y-68448027D01*
X97912027Y-68287712D01*
X98100548Y-68161746D01*
X98310016Y-68074982D01*
X98532385Y-68030750D01*
X98759115Y-68030750D01*
X98981484Y-68074982D01*
X98981484Y-68074982D01*
G37*
G36*
X119308750Y-68000750D02*
X117606750Y-68000750D01*
X117606750Y-66298750D01*
X119308750Y-66298750D01*
X119308750Y-68000750D01*
X119308750Y-68000750D01*
G37*
G36*
X103465978Y-66331453D02*
X103620850Y-66395603D01*
X103760231Y-66488735D01*
X103878765Y-66607269D01*
X103971897Y-66746650D01*
X104036047Y-66901522D01*
X104068750Y-67065934D01*
X104068750Y-67233566D01*
X104036047Y-67397978D01*
X103971897Y-67552850D01*
X103878765Y-67692231D01*
X103760231Y-67810765D01*
X103620850Y-67903897D01*
X103465978Y-67968047D01*
X103301566Y-68000750D01*
X103133934Y-68000750D01*
X102969522Y-67968047D01*
X102814650Y-67903897D01*
X102675269Y-67810765D01*
X102556735Y-67692231D01*
X102463603Y-67552850D01*
X102399453Y-67397978D01*
X102366750Y-67233566D01*
X102366750Y-67065934D01*
X102399453Y-66901522D01*
X102463603Y-66746650D01*
X102556735Y-66607269D01*
X102675269Y-66488735D01*
X102814650Y-66395603D01*
X102969522Y-66331453D01*
X103133934Y-66298750D01*
X103301566Y-66298750D01*
X103465978Y-66331453D01*
X103465978Y-66331453D01*
G37*
M02*
