M48
INCH,TZ
T1C0.0157
T2C0.0433
T3C0.0591
%
G90
G05
T1
X4.5037Y-3.9037
X4.5037Y-4.6537
X4.5537Y-3.9537
X4.56Y-4.71
X4.6037Y-3.4037
X4.6037Y-3.5037
X4.6237Y-5.2937
X4.6537Y-4.5037
X4.6637Y-5.3537
X4.6737Y-5.0637
X4.7037Y-4.6037
X4.7337Y-5.0637
T2
X4.0637Y-2.6437
X4.0637Y-2.7437
X4.0637Y-2.8437
X4.0637Y-2.9437
X4.0637Y-3.0437
X4.0637Y-3.1437
X4.0637Y-3.2437
X4.0637Y-3.3437
X4.0637Y-3.4437
X4.0637Y-3.5437
X4.0637Y-3.6437
X4.0637Y-3.7437
X4.6637Y-2.6437
X4.6637Y-2.7437
X4.6637Y-2.8437
X4.6637Y-2.9437
X4.6637Y-3.0437
X4.6637Y-3.1437
X4.6637Y-3.2437
X4.6637Y-3.3437
X4.6637Y-3.4437
X4.6637Y-3.5437
X4.6637Y-3.6437
X4.6637Y-3.7437
T3
X4.9737Y-2.8737
X5.2237Y-2.7737
X4.9737Y-5.1537
X5.2237Y-5.0537
X4.2137Y-4.3937
X4.4637Y-4.2937
X4.2137Y-2.8737
X4.4637Y-2.7737
X4.9737Y-4.3937
X5.2237Y-4.2937
X4.9737Y-3.6337
X5.2237Y-3.5337
X4.2137Y-3.6337
X4.4637Y-3.5337
X4.5937Y-5.1537
X4.8437Y-5.0537
X4.2137Y-5.1537
X4.4637Y-5.0537
T0
M30
