M48
INCH,TZ
T1C0.0669
T2C0.0866
T3C0.1201
T4C0.1575
%
G90
G05
T1
X5.3237Y-2.9737
X4.1637Y-4.4937
X4.9237Y-4.4937
X5.3237Y-4.4937
X4.9237Y-3.7337
X5.3237Y-3.7337
X4.1637Y-3.7337
X4.5637Y-3.7337
X4.5437Y-5.2537
X4.9437Y-5.2537
X4.1637Y-5.2537
X4.5637Y-5.2537
X4.9237Y-2.9737
X4.9237Y-5.2537
X5.3237Y-5.2537
X4.5637Y-4.4937
X4.1637Y-2.9737
X4.5637Y-2.9737
T2
X3.9137Y-5.7137
X5.5837Y-5.7137
X5.6037Y-2.7237
X3.8837Y-2.7237
T3
X4.2752Y-4.9781
X5.2122Y-4.9781
T4
X5.1237Y-2.9737
X4.3637Y-2.9737
X4.7437Y-5.2537
X5.1237Y-5.2537
X5.1237Y-3.7337
X4.3637Y-3.7337
X4.2752Y-5.5781
X5.2122Y-5.5781
X4.3637Y-5.2537
X4.3637Y-4.4937
X5.1237Y-4.4937
T0
M30
